<?xml version="1.0" standalone="no"?>
<!DOCTYPE svg PUBLIC "-//W3C//DTD SVG 20010904//EN"
 "http://www.w3.org/TR/2001/REC-SVG-20010904/DTD/svg10.dtd">
<svg version="1.0" xmlns="http://www.w3.org/2000/svg"
 width="500.000000pt" height="500.000000pt" viewBox="0 0 500.000000 500.000000"
 preserveAspectRatio="xMidYMid meet">
<metadata>
Created by potrace 1.16, written by Peter Selinger 2001-2019
</metadata>
<g transform="translate(0.000000,500.000000) scale(0.100000,-0.100000)"
fill="#000000" stroke="none">
<path d="M550 1556 c0 -16 3 -17 12 -8 7 7 29 12 50 12 l38 0 0 -123 c0 -82
-4 -127 -12 -135 -9 -9 -2 -12 33 -12 l44 0 -3 135 -3 135 33 0 c19 0 39 -5
46 -12 9 -9 12 -8 12 8 0 18 -8 19 -125 19 -117 0 -125 -1 -125 -19z"/>
<path d="M1465 1571 c-51 -4 -85 -9 -77 -14 15 -10 17 -219 2 -248 -10 -18 -7
-19 84 -19 76 0 95 3 100 16 11 29 6 37 -12 21 -12 -11 -36 -17 -65 -17 l-47
0 0 56 0 56 45 -4 c35 -2 45 0 45 12 0 12 -10 14 -45 12 l-45 -4 0 61 0 61 43
0 c24 0 48 -5 55 -12 9 -9 12 -7 12 10 0 12 -1 21 -2 20 -2 -1 -43 -4 -93 -7z"/>
<path d="M2976 1433 c-27 -60 -56 -116 -64 -125 -14 -16 -13 -18 11 -18 21 0
27 5 27 23 0 33 19 47 62 47 32 0 40 -4 48 -26 6 -14 8 -30 4 -35 -3 -5 16 -9
42 -9 37 0 44 3 35 13 -6 8 -34 64 -63 126 l-53 112 -49 -108z"/>
<path d="M3696 1433 c-27 -60 -56 -116 -64 -125 -14 -16 -13 -18 11 -18 21 0
27 5 27 23 0 33 19 47 62 47 32 0 40 -4 48 -26 6 -14 8 -30 4 -35 -3 -5 16 -9
42 -9 37 0 44 3 35 13 -6 8 -34 64 -63 126 l-53 112 -49 -108z"/>
<path d="M4250 1527 c-77 -20 -112 -105 -75 -177 20 -40 63 -60 125 -60 28 0
64 7 80 15 90 46 73 201 -24 220 -17 4 -38 8 -46 10 -8 2 -35 -2 -60 -8z m109
-33 c42 -53 19 -176 -34 -190 -65 -16 -105 27 -105 114 0 68 27 102 80 102 30
0 43 -6 59 -26z"/>
<path d="M858 1425 c3 -73 0 -110 -8 -120 -11 -13 -7 -15 26 -15 l39 0 -3 61
-4 60 54 -3 53 -3 0 -58 0 -57 39 0 c33 0 37 2 26 15 -8 10 -11 47 -8 120 l3
105 -30 0 -30 0 3 -55 4 -55 -57 0 -57 0 4 55 3 55 -30 0 -30 0 3 -105z"/>
<path d="M1155 1410 l0 -120 83 0 c45 0 82 4 82 9 0 5 3 17 7 27 5 14 1 13
-24 -5 -19 -14 -41 -21 -59 -19 -27 3 -29 6 -32 52 l-3 48 45 -4 c37 -2 46 0
46 13 0 14 -8 16 -46 11 l-45 -5 3 49 3 49 48 -1 c26 0 47 3 47 8 0 4 -35 8
-77 8 l-78 0 0 -120z"/>
<path d="M1638 1410 l-3 -120 30 0 30 0 -3 82 -4 81 49 -41 c26 -23 69 -60 96
-83 l47 -41 0 121 0 121 -30 0 -30 0 0 -76 0 -75 -29 23 c-16 13 -56 47 -89
76 l-61 53 -3 -121z"/>
<path d="M2195 1410 l0 -121 85 3 c82 3 85 4 88 28 2 14 -1 20 -5 14 -13 -18
-50 -34 -77 -34 -25 0 -26 3 -26 51 l0 51 40 -4 c37 -3 40 -2 39 22 0 14 -3
19 -6 13 -2 -7 -20 -13 -39 -13 l-34 0 0 50 0 50 38 0 c21 0 43 -5 50 -12 9
-9 12 -8 12 5 0 15 -12 17 -82 17 l-83 0 0 -120z"/>
<path d="M2425 1410 l0 -120 35 0 35 0 -3 115 c-3 108 -2 115 16 115 10 0 27
-9 37 -20 21 -23 14 -64 -14 -81 -17 -11 -17 -14 6 -56 30 -53 58 -73 98 -72
16 0 25 3 18 5 -7 3 -28 28 -48 56 -36 50 -36 50 -16 65 14 9 21 25 21 48 0
49 -28 65 -115 65 l-70 0 0 -120z"/>
<path d="M3338 1410 l-3 -120 30 0 30 0 -3 82 -4 81 49 -41 c26 -23 69 -60 96
-83 l47 -41 0 121 0 121 -30 0 -30 0 0 -76 0 -75 -29 23 c-16 13 -56 47 -89
76 l-61 53 -3 -121z"/>
<path d="M3915 1410 l0 -120 39 0 c32 0 36 2 27 14 -8 9 -11 48 -9 112 3 93 4
99 25 102 32 5 57 -37 43 -72 -5 -15 -16 -29 -24 -32 -12 -4 -10 -14 11 -53
24 -48 55 -71 94 -71 20 0 20 1 -3 30 -69 88 -70 90 -54 90 19 0 36 30 36 64
0 39 -34 56 -115 56 l-70 0 0 -120z"/>
<path d="M1510 1142 c0 -21 1 -22 16 -8 8 9 31 16 50 16 l35 0 -3 -135 -3
-135 35 0 35 0 -3 135 -3 135 35 0 c19 0 42 -7 50 -16 15 -14 16 -13 16 8 0
23 -1 23 -130 23 -129 0 -130 0 -130 -23z"/>
<path d="M2250 1161 l-85 -6 0 -138 0 -137 93 0 c73 0 92 3 92 14 0 8 3 22 7
32 5 14 2 13 -15 -4 -16 -16 -34 -22 -67 -22 l-45 0 0 56 0 56 45 -4 c35 -2
45 0 45 12 0 12 -10 14 -45 12 l-45 -4 0 61 0 61 43 0 c24 0 48 -5 55 -12 9
-9 12 -7 12 10 0 12 -1 21 -2 20 -2 -1 -41 -4 -88 -7z"/>
<path d="M2680 1146 c0 -16 3 -17 12 -8 7 7 27 12 46 12 l33 0 -3 -135 -3
-135 44 0 c35 0 42 3 33 12 -8 8 -12 53 -12 135 l0 123 38 0 c21 0 43 -5 50
-12 9 -9 12 -8 12 8 0 18 -8 19 -125 19 -117 0 -125 -1 -125 -19z"/>
<path d="M3370 1163 l-85 -4 3 -131 c2 -100 0 -133 -10 -139 -7 -5 31 -9 88
-9 l102 0 4 30 c5 30 4 30 -14 10 -13 -14 -32 -20 -63 -20 l-45 0 0 55 0 55
39 0 c22 0 42 -5 44 -12 3 -7 5 3 5 22 0 19 -2 29 -5 23 -2 -8 -22 -13 -44
-13 l-39 0 0 60 0 60 39 0 c23 0 46 -7 55 -16 15 -14 16 -13 16 10 0 14 -1 25
-2 24 -2 -1 -41 -4 -88 -5z"/>
<path d="M1815 1020 l0 -140 45 1 c25 0 39 3 33 6 -9 3 -13 26 -13 64 l0 59
70 0 70 0 0 -46 c0 -25 -5 -54 -10 -65 -10 -17 -7 -19 36 -19 39 0 45 2 35 14
-8 10 -11 54 -9 140 l3 126 -38 0 c-34 0 -37 -2 -27 -19 5 -11 10 -40 10 -65
l0 -46 -71 0 -71 0 4 65 3 65 -35 0 -35 0 0 -140z"/>
<path d="M2490 1095 c-17 -38 -43 -97 -57 -130 -15 -33 -33 -66 -42 -72 -12
-11 -10 -13 18 -13 20 0 30 4 26 11 -4 5 -1 23 5 40 11 26 17 29 61 29 39 0
50 -4 60 -21 6 -12 9 -30 6 -40 -5 -17 1 -19 42 -19 l47 0 -51 108 c-28 59
-58 123 -67 142 l-16 35 -32 -70z"/>
<path d="M2988 1034 c2 -86 -1 -130 -9 -140 -10 -12 -4 -14 32 -14 l44 0 -3
136 -3 135 28 -3 c57 -6 70 -96 17 -123 -19 -10 -19 -11 11 -65 33 -59 62 -80
110 -80 24 1 27 3 14 10 -9 5 -31 32 -49 60 -18 27 -37 50 -42 50 -6 0 4 13
21 29 38 36 40 73 6 106 -21 22 -33 25 -102 25 l-78 0 3 -126z"/>
</g>
</svg>
